<?xml version="1.0" encoding="utf-8"?>
<!-- Generator: Adobe Illustrator 16.0.3, SVG Export Plug-In . SVG Version: 6.00 Build 0)  -->
<!DOCTYPE svg PUBLIC "-//W3C//DTD SVG 1.1//EN" "http://www.w3.org/Graphics/SVG/1.1/DTD/svg11.dtd">
<svg version="1.1" id="Layer_1" xmlns="http://www.w3.org/2000/svg" xmlns:xlink="http://www.w3.org/1999/xlink" x="0px" y="0px"
	 width="283.464px" height="283.465px" viewBox="0 0 283.464 283.465" enable-background="new 0 0 283.464 283.465"
	 xml:space="preserve">
<linearGradient id="SVGID_1_" gradientUnits="userSpaceOnUse" x1="-1463.7583" y1="1463.4907" x2="-1180.293" y2="1463.4907" gradientTransform="matrix(0 1 -1 0 1605.2227 1463.7583)">
	<stop  offset="0" style="stop-color:#271972"/>
	<stop  offset="0.9677" style="stop-color:#24A3E7"/>
	<stop  offset="1" style="stop-color:#25A8EB"/>
</linearGradient>
<circle fill="url(#SVGID_1_)" cx="141.732" cy="141.731" r="141.732"/>
<g>
	<path fill="#FFFFFF" d="M200.65,169.651c-0.169-0.885-0.851-1.583-1.725-1.78v-52.276c0.874-0.197,1.556-0.896,1.725-1.781
		c1.588-0.425,3.444-0.427,3.444-0.427s-1.856-0.002-3.444-0.427c-0.174-0.909-0.889-1.624-1.797-1.797
		c-0.426-1.589-0.428-3.445-0.428-3.445s-0.002,1.856-0.428,3.445c-0.53,0.102-0.988,0.392-1.317,0.793l-52.751-26.376
		c0.009-0.038,0.021-0.073,0.028-0.112c1.589-0.425,3.444-0.427,3.444-0.427s-1.855-0.002-3.444-0.427
		c-0.008-0.039-0.02-0.074-0.028-0.112l52.751-26.376c0.33,0.401,0.788,0.691,1.318,0.793c0.425,1.588,0.427,3.444,0.427,3.444
		s0.002-1.856,0.428-3.444c0.908-0.174,1.623-0.889,1.797-1.797c1.588-0.425,3.444-0.427,3.444-0.427s-1.856-0.002-3.444-0.427
		c-0.054-0.283-0.163-0.544-0.311-0.779L227.125,28.7l-0.707-0.707L199.632,54.78c-0.235-0.148-0.497-0.257-0.779-0.311
		c-0.426-1.589-0.428-3.445-0.428-3.445s-0.002,1.856-0.428,3.445c-0.908,0.174-1.623,0.888-1.797,1.797
		c-1.588,0.425-3.444,0.427-3.444,0.427s1.856,0.002,3.444,0.427c0.008,0.038,0.02,0.074,0.028,0.112l-52.751,26.376
		c-0.33-0.401-0.788-0.691-1.317-0.793c-0.426-1.589-0.428-3.445-0.428-3.445s-0.002,1.856-0.428,3.445
		c-0.908,0.174-1.623,0.888-1.796,1.797c-1.588,0.425-3.445,0.427-3.445,0.427s1.856,0.002,3.445,0.427
		c0.007,0.038,0.02,0.074,0.028,0.111l-52.752,26.376c-0.33-0.401-0.787-0.691-1.317-0.793c-0.426-1.589-0.428-3.445-0.428-3.445
		s-0.002,1.856-0.428,3.445c-0.908,0.174-1.623,0.888-1.796,1.797c-1.588,0.425-3.445,0.427-3.445,0.427s1.856,0.002,3.445,0.427
		c0.169,0.884,0.851,1.583,1.725,1.781v51.71c-0.874,0.197-1.556,0.896-1.725,1.781c-1.588,0.425-3.444,0.427-3.444,0.427
		s1.856,0.002,3.444,0.427c0.174,0.908,0.889,1.623,1.798,1.797c0.425,1.589,0.427,3.445,0.427,3.445s0.002-1.856,0.428-3.445
		c0.346-0.066,0.66-0.215,0.93-0.419l53.138,26.569c-0.009,0.037-0.021,0.073-0.029,0.112c-1.588,0.425-3.444,0.427-3.444,0.427
		s1.856,0.002,3.444,0.427c0.007,0.039,0.02,0.075,0.029,0.112L86.785,225.34c-0.33-0.401-0.788-0.691-1.318-0.793
		c-0.426-1.589-0.428-3.445-0.428-3.445s-0.002,1.856-0.428,3.445c-0.909,0.174-1.624,0.888-1.797,1.797
		c-1.588,0.426-3.444,0.428-3.444,0.428s1.856,0.002,3.444,0.428c0.054,0.282,0.163,0.544,0.311,0.778l-26.786,26.788l0.707,0.707
		l26.787-26.787c0.235,0.148,0.497,0.257,0.779,0.311c0.425,1.588,0.427,3.443,0.427,3.443s0.002-1.855,0.428-3.443
		c0.909-0.174,1.623-0.889,1.797-1.797c1.588-0.426,3.444-0.428,3.444-0.428s-1.856-0.002-3.444-0.428
		c-0.007-0.038-0.019-0.074-0.028-0.111l52.751-26.375c0.33,0.401,0.788,0.691,1.319,0.793c0.425,1.588,0.427,3.443,0.427,3.443
		s0.002-1.855,0.428-3.443c0.907-0.174,1.622-0.889,1.796-1.797c1.589-0.426,3.445-0.428,3.445-0.428s-1.856-0.002-3.445-0.428
		c-0.008-0.038-0.02-0.074-0.028-0.111l52.752-26.377c0.33,0.401,0.788,0.691,1.318,0.793c0.426,1.588,0.427,3.443,0.427,3.443
		s0.003-1.855,0.428-3.443c0.908-0.174,1.623-0.889,1.797-1.797c1.589-0.425,3.445-0.427,3.445-0.427
		S202.239,170.077,200.65,169.651z M85.54,167.305v-51.71c0.5-0.113,0.931-0.394,1.245-0.776l51.729,25.864
		c-0.044,0.135-0.091,0.269-0.119,0.411c-2.383,0.638-5.167,0.64-5.167,0.64s2.784,0.004,5.167,0.642
		c0.027,0.141,0.074,0.273,0.117,0.408l-51.449,25.725C86.764,167.907,86.211,167.456,85.54,167.305z M145.07,142.376
		c2.383-0.638,5.166-0.641,5.166-0.641s-2.783-0.004-5.166-0.642c-0.027-0.142-0.074-0.276-0.118-0.411l51.729-25.864
		c0.314,0.382,0.745,0.664,1.245,0.776v52.276c-0.5,0.113-0.931,0.394-1.245,0.776l-51.728-25.864
		C144.996,142.649,145.042,142.517,145.07,142.376z M196.229,112.848c-0.009,0.038-0.021,0.074-0.028,0.112
		c-1.588,0.425-3.444,0.427-3.444,0.427s1.856,0.002,3.444,0.427c0.008,0.038,0.02,0.074,0.028,0.112l-51.716,25.858
		c-0.498-0.709-1.257-1.218-2.14-1.386c-0.052-0.193-0.098-0.389-0.141-0.586V87.249c0.5-0.113,0.931-0.394,1.246-0.777
		L196.229,112.848z M139.988,86.471c0.314,0.383,0.745,0.664,1.245,0.777v50.563c-0.043,0.197-0.089,0.393-0.141,0.586
		c-0.883,0.168-1.641,0.677-2.14,1.386l-51.716-25.857c0.009-0.038,0.021-0.074,0.028-0.112c1.588-0.425,3.444-0.427,3.444-0.427
		s-1.856-0.002-3.444-0.427c-0.007-0.038-0.02-0.074-0.028-0.112L139.988,86.471z M87.056,170.528
		c0.094-0.185,0.168-0.379,0.208-0.588c1.588-0.425,3.444-0.427,3.444-0.427s-1.425,0-2.846-0.286l51.087-25.543
		c0.499,0.71,1.259,1.221,2.143,1.389c0.051,0.191,0.096,0.384,0.139,0.579v50.567c-0.5,0.113-0.931,0.394-1.245,0.776
		L87.056,170.528z M143.477,196.996c-0.314-0.384-0.745-0.665-1.245-0.777v-50.558c0.044-0.198,0.09-0.395,0.142-0.589
		c0.883-0.169,1.643-0.679,2.141-1.389l51.714,25.857c-0.009,0.038-0.021,0.073-0.028,0.111c-1.589,0.425-3.445,0.427-3.445,0.427
		s1.856,0.002,3.445,0.428c0.008,0.038,0.02,0.074,0.028,0.112L143.477,196.996z"/>
	<path fill="#FFFFFF" d="M184.367,84.496c-0.109-0.4-0.113-0.874-0.113-0.874s-0.004,0.473-0.114,0.874
		c-0.219,0.046-0.384,0.212-0.431,0.431c-0.399,0.11-0.873,0.114-0.873,0.114s0.474,0.003,0.873,0.113
		c0.047,0.219,0.212,0.384,0.431,0.43c0.11,0.4,0.114,0.874,0.114,0.874s0.004-0.473,0.113-0.874c0.219-0.046,0.384-0.211,0.43-0.43
		c0.4-0.11,0.873-0.114,0.873-0.114s-0.473-0.003-0.873-0.114C184.75,84.708,184.585,84.542,184.367,84.496z"/>
	<path fill="#FFFFFF" d="M156.45,169.966c-0.047-0.219-0.212-0.384-0.431-0.43c-0.11-0.4-0.114-0.874-0.114-0.874
		s-0.004,0.473-0.113,0.874c-0.22,0.046-0.384,0.211-0.431,0.43c-0.399,0.11-0.873,0.114-0.873,0.114s0.474,0.003,0.873,0.114
		c0.047,0.22,0.212,0.386,0.432,0.432c0.109,0.4,0.112,0.872,0.112,0.872s0.004-0.473,0.114-0.872
		c0.219-0.046,0.384-0.212,0.431-0.432c0.399-0.11,0.873-0.114,0.873-0.114S156.849,170.076,156.45,169.966z"/>
	<path fill="#FFFFFF" d="M183.708,42.633c0.046,0.22,0.212,0.386,0.431,0.432c0.109,0.4,0.112,0.873,0.112,0.873
		s0.004-0.473,0.114-0.873c0.22-0.046,0.386-0.212,0.432-0.432c0.399-0.11,0.872-0.114,0.872-0.114s-0.473-0.003-0.872-0.113
		c-0.046-0.219-0.212-0.384-0.432-0.43c-0.11-0.4-0.114-0.874-0.114-0.874s-0.004,0.473-0.113,0.874
		c-0.219,0.046-0.384,0.211-0.43,0.43c-0.4,0.11-0.874,0.114-0.874,0.114S183.308,42.523,183.708,42.633z"/>
	<path fill="#FFFFFF" d="M112.841,56.806c0.046,0.22,0.212,0.386,0.431,0.432c0.109,0.4,0.113,0.873,0.113,0.873
		s0.004-0.473,0.114-0.873c0.219-0.046,0.385-0.212,0.431-0.432c0.4-0.11,0.873-0.114,0.873-0.114s-0.473-0.003-0.873-0.113
		c-0.046-0.219-0.211-0.384-0.431-0.43c-0.11-0.4-0.114-0.874-0.114-0.874s-0.003,0.473-0.114,0.874
		c-0.219,0.046-0.384,0.211-0.43,0.43c-0.4,0.11-0.874,0.114-0.874,0.114S112.441,56.696,112.841,56.806z"/>
	<path fill="#FFFFFF" d="M127.015,113.499c0.046,0.22,0.212,0.386,0.431,0.432c0.109,0.4,0.112,0.873,0.112,0.873
		s0.004-0.473,0.114-0.873c0.219-0.046,0.385-0.212,0.431-0.432c0.4-0.11,0.873-0.114,0.873-0.114s-0.473-0.003-0.873-0.113
		c-0.046-0.219-0.212-0.384-0.431-0.43c-0.11-0.4-0.114-0.874-0.114-0.874s-0.003,0.473-0.114,0.874
		c-0.218,0.046-0.384,0.211-0.43,0.43c-0.4,0.11-0.874,0.114-0.874,0.114S126.615,113.388,127.015,113.499z"/>
	<path fill="#FFFFFF" d="M99.757,240.833c-0.046-0.22-0.211-0.385-0.431-0.431c-0.11-0.4-0.114-0.874-0.114-0.874
		s-0.003,0.474-0.114,0.874c-0.218,0.046-0.384,0.211-0.43,0.431c-0.4,0.109-0.874,0.113-0.874,0.113s0.474,0.004,0.874,0.114
		c0.046,0.22,0.212,0.386,0.431,0.432c0.11,0.399,0.113,0.872,0.113,0.872s0.004-0.473,0.114-0.873
		c0.219-0.046,0.385-0.212,0.431-0.432c0.4-0.109,0.873-0.113,0.873-0.113S100.157,240.942,99.757,240.833z"/>
	<path fill="#FFFFFF" d="M170.624,226.657c-0.047-0.219-0.212-0.384-0.432-0.431c-0.11-0.399-0.114-0.872-0.114-0.872
		s-0.004,0.473-0.113,0.873c-0.219,0.046-0.384,0.211-0.43,0.43c-0.4,0.109-0.874,0.113-0.874,0.113s0.474,0.004,0.874,0.114
		c0.046,0.22,0.212,0.386,0.431,0.432c0.109,0.399,0.112,0.872,0.112,0.872s0.004-0.473,0.114-0.873
		c0.22-0.046,0.386-0.212,0.432-0.432c0.399-0.109,0.872-0.113,0.872-0.113S171.023,226.766,170.624,226.657z"/>
	<path fill="#FFFFFF" d="M56.581,213.144c0.109,0.399,0.112,0.872,0.112,0.872s0.004-0.473,0.114-0.873
		c0.22-0.046,0.385-0.212,0.431-0.432c0.4-0.109,0.873-0.113,0.873-0.113s-0.473-0.004-0.873-0.113
		c-0.046-0.219-0.212-0.384-0.432-0.431c-0.11-0.399-0.114-0.872-0.114-0.872s-0.003,0.473-0.114,0.873
		c-0.219,0.046-0.384,0.211-0.43,0.43c-0.4,0.109-0.873,0.113-0.873,0.113s0.473,0.004,0.873,0.114
		C56.195,212.932,56.361,213.098,56.581,213.144z"/>
	<path fill="#FFFFFF" d="M226.886,70.889c-0.11-0.4-0.114-0.874-0.114-0.874s-0.004,0.473-0.114,0.874
		c-0.219,0.046-0.384,0.211-0.431,0.43c-0.399,0.11-0.872,0.113-0.872,0.113s0.473,0.003,0.872,0.114
		c0.047,0.22,0.213,0.386,0.432,0.432c0.11,0.4,0.113,0.873,0.113,0.873s0.004-0.473,0.114-0.873
		c0.219-0.046,0.384-0.212,0.431-0.432c0.399-0.11,0.873-0.114,0.873-0.114s-0.474-0.003-0.873-0.113
		C227.27,71.1,227.105,70.935,226.886,70.889z"/>
	<path fill="#FFFFFF" d="M98.668,70.978c0.046,0.22,0.212,0.386,0.431,0.432c0.109,0.4,0.113,0.873,0.113,0.873
		s0.004-0.473,0.114-0.873c0.219-0.046,0.385-0.212,0.431-0.432c0.4-0.11,0.873-0.114,0.873-0.114s-0.473-0.003-0.873-0.113
		c-0.046-0.219-0.211-0.384-0.431-0.43c-0.11-0.4-0.114-0.874-0.114-0.874s-0.003,0.473-0.114,0.874
		c-0.219,0.046-0.384,0.211-0.43,0.43c-0.4,0.11-0.873,0.113-0.873,0.113S98.269,70.868,98.668,70.978z"/>
	<path fill="#FFFFFF" d="M99.099,198.969c0.11,0.4,0.114,0.875,0.114,0.875s0.003-0.475,0.114-0.875
		c0.219-0.046,0.384-0.211,0.43-0.43c0.4-0.109,0.873-0.113,0.873-0.113s-0.473-0.004-0.873-0.113
		c-0.046-0.219-0.211-0.384-0.43-0.43c-0.11-0.4-0.114-0.875-0.114-0.875s-0.004,0.475-0.114,0.875
		c-0.218,0.046-0.384,0.211-0.43,0.43c-0.4,0.109-0.874,0.113-0.874,0.113s0.473,0.004,0.874,0.113
		C98.715,198.758,98.88,198.923,99.099,198.969z"/>
	<path fill="#FFFFFF" d="M184.797,212.483c-0.047-0.219-0.212-0.384-0.432-0.431c-0.11-0.399-0.114-0.872-0.114-0.872
		s-0.004,0.473-0.113,0.873c-0.219,0.046-0.384,0.211-0.43,0.43c-0.4,0.109-0.873,0.113-0.873,0.113s0.473,0.004,0.872,0.114
		c0.047,0.22,0.213,0.386,0.432,0.432c0.109,0.399,0.112,0.872,0.112,0.872s0.004-0.473,0.114-0.873
		c0.22-0.046,0.386-0.212,0.432-0.432c0.399-0.109,0.872-0.113,0.872-0.113S185.197,212.592,184.797,212.483z"/>
	<path fill="#FFFFFF" d="M232.441,141.733c0,0-1.855-0.002-3.443-0.427c-0.174-0.909-0.889-1.624-1.797-1.797
		c-0.426-1.589-0.428-3.445-0.428-3.445s-0.003,1.857-0.429,3.445c-0.908,0.174-1.622,0.888-1.796,1.797
		c-1.589,0.425-3.445,0.427-3.445,0.427s1.856,0.002,3.445,0.427c0.174,0.909,0.889,1.624,1.797,1.797
		c0.426,1.588,0.428,3.444,0.428,3.444s0.002-1.856,0.428-3.444c0.908-0.174,1.623-0.889,1.797-1.797
		C230.585,141.735,232.441,141.733,232.441,141.733z"/>
	<path fill="#FFFFFF" d="M55.699,143.957c0.425,1.588,0.427,3.444,0.427,3.444s0.002-1.856,0.428-3.444
		c0.909-0.174,1.624-0.889,1.797-1.797c1.588-0.425,3.443-0.427,3.443-0.427s-1.855-0.002-3.443-0.427
		c-0.174-0.909-0.889-1.624-1.797-1.797c-0.426-1.589-0.428-3.445-0.428-3.445s-0.002,1.856-0.428,3.445
		c-0.909,0.174-1.623,0.888-1.797,1.797c-1.588,0.425-3.444,0.427-3.444,0.427s1.856,0.002,3.444,0.427
		C54.075,143.069,54.79,143.783,55.699,143.957z"/>
	<path fill="#FFFFFF" d="M139.509,28.775c0.174,0.909,0.889,1.624,1.798,1.797c0.425,1.588,0.427,3.444,0.427,3.444
		s0.002-1.856,0.428-3.444c0.909-0.174,1.624-0.889,1.797-1.797c1.588-0.425,3.443-0.427,3.443-0.427s-1.855-0.002-3.443-0.427
		c-0.174-0.909-0.889-1.624-1.797-1.797c-0.426-1.589-0.428-3.445-0.428-3.445s-0.002,1.856-0.428,3.445
		c-0.909,0.174-1.623,0.888-1.797,1.797c-1.588,0.425-3.444,0.427-3.444,0.427S137.92,28.35,139.509,28.775z"/>
	<path fill="#FFFFFF" d="M143.957,254.692c-0.174-0.909-0.889-1.623-1.797-1.797c-0.426-1.589-0.428-3.445-0.428-3.445
		s-0.002,1.856-0.428,3.445c-0.909,0.174-1.623,0.888-1.797,1.797c-1.588,0.426-3.444,0.428-3.444,0.428s1.856,0.002,3.444,0.428
		c0.174,0.908,0.889,1.623,1.798,1.797c0.425,1.588,0.427,3.443,0.427,3.443s0.002-1.855,0.428-3.443
		c0.908-0.174,1.623-0.889,1.797-1.797c1.588-0.426,3.443-0.428,3.443-0.428S145.544,255.118,143.957,254.692z"/>
	<path fill="#FFFFFF" d="M154.816,56.915c0.091,0.444,0.426,0.78,0.87,0.87c0.218,0.799,0.219,1.744,0.219,1.744
		s0.002-0.945,0.221-1.744c0.443-0.091,0.779-0.427,0.87-0.871c0.799-0.219,1.743-0.22,1.743-0.22s-0.944-0.001-1.743-0.22
		c-0.091-0.444-0.426-0.779-0.87-0.869c-0.22-0.799-0.221-1.746-0.221-1.746s-0.001,0.946-0.221,1.746
		c-0.443,0.09-0.777,0.424-0.868,0.868c-0.799,0.219-1.745,0.22-1.745,0.22S154.017,56.695,154.816,56.915z"/>
	<path fill="#FFFFFF" d="M128.649,226.552c-0.09-0.444-0.426-0.778-0.87-0.869c-0.219-0.799-0.221-1.745-0.221-1.745
		s-0.001,0.946-0.22,1.745c-0.443,0.09-0.778,0.424-0.868,0.868c-0.799,0.219-1.746,0.221-1.746,0.221s0.946,0.002,1.746,0.221
		c0.09,0.444,0.426,0.779,0.869,0.87c0.218,0.799,0.219,1.743,0.219,1.743s0.002-0.945,0.221-1.744
		c0.443-0.091,0.779-0.426,0.869-0.869c0.799-0.219,1.744-0.221,1.744-0.221S129.448,226.771,128.649,226.552z"/>
	<path fill="#FFFFFF" d="M227.318,198.313c-0.046-0.22-0.212-0.385-0.431-0.431c-0.11-0.4-0.114-0.874-0.114-0.874
		s-0.004,0.474-0.113,0.874c-0.22,0.046-0.385,0.211-0.431,0.431c-0.399,0.109-0.873,0.113-0.873,0.113s0.474,0.004,0.873,0.114
		c0.047,0.22,0.212,0.386,0.431,0.432c0.11,0.399,0.113,0.872,0.113,0.872s0.004-0.473,0.114-0.873
		c0.219-0.046,0.384-0.212,0.431-0.432c0.399-0.109,0.872-0.113,0.872-0.113S227.717,198.422,227.318,198.313z"/>
	<path fill="#FFFFFF" d="M56.58,85.584c0.109,0.4,0.113,0.873,0.113,0.873s0.004-0.473,0.114-0.873
		c0.22-0.046,0.385-0.212,0.431-0.432c0.4-0.11,0.873-0.114,0.873-0.114s-0.473-0.003-0.873-0.113
		c-0.046-0.219-0.212-0.384-0.431-0.43c-0.11-0.4-0.114-0.874-0.114-0.874s-0.003,0.473-0.114,0.874
		c-0.257,0.054-0.453,0.271-0.453,0.543C56.126,85.313,56.323,85.531,56.58,85.584z"/>
</g>
</svg>
